<svg width="101" height="101" viewBox="0 0 101 101" fill="none" xmlns="http://www.w3.org/2000/svg">
<path d="M30.1186 46.5157C29.6597 45.9167 28.9822 45.5238 28.2344 45.423C27.4865 45.3223 26.7292 45.5219 26.1282 45.9782C25.7746 46.257 25.4894 46.613 25.2943 47.0188L0.793641 96.034C0.446628 96.7286 0.38963 97.5326 0.635175 98.2692C0.88072 99.0058 1.40871 99.6148 2.1031 99.9623C2.50898 100.168 2.95771 100.274 3.41255 100.272H37.548C38.0948 100.286 38.6337 100.141 39.0989 99.853C39.564 99.5653 39.9352 99.1483 40.1669 98.6529C47.5344 83.4356 43.0684 60.2995 30.1186 46.5157Z" fill="url(#paint0_linear_527_2787)"/>
<path d="M48.1272 1.91137C42.0194 11.3102 38.4598 22.1353 37.7977 33.3248C37.1356 44.5142 39.3937 55.6836 44.3504 65.7371L60.8083 98.6528C61.0514 99.1393 61.4252 99.5484 61.8877 99.8345C62.3503 100.121 62.8833 100.272 63.4272 100.272H97.5559C97.9408 100.273 98.322 100.198 98.6778 100.051C99.0336 99.9044 99.3569 99.6887 99.629 99.4165C99.9012 99.1443 100.117 98.8211 100.264 98.4653C100.411 98.1095 100.486 97.7282 100.485 97.3433C100.485 96.8894 100.381 96.4415 100.182 96.0339L53.11 1.89759C52.8866 1.42588 52.5338 1.0273 52.0928 0.748181C51.6517 0.469066 51.1405 0.320892 50.6186 0.320892C50.0966 0.320892 49.5854 0.469066 49.1444 0.748181C48.7033 1.0273 48.3506 1.42588 48.1272 1.89759V1.91137Z" fill="#2684FF"/>
<defs>
<linearGradient id="paint0_linear_527_2787" x1="43.606" y1="54.0072" x2="17.7338" y2="98.8182" gradientUnits="userSpaceOnUse">
<stop stop-color="#0052CC"/>
<stop offset="0.92" stop-color="#2684FF"/>
</linearGradient>
</defs>
</svg>
