<svg width="101" height="91" viewBox="0 0 101 91" fill="none" xmlns="http://www.w3.org/2000/svg">
<path d="M3.34981 0.227563C2.88218 0.221516 2.41888 0.31792 1.99247 0.510006C1.56606 0.702092 1.18688 0.985201 0.881543 1.33945C0.576209 1.6937 0.352131 2.1105 0.225047 2.56058C0.0979635 3.01066 0.0709547 3.4831 0.145918 3.94473L13.747 86.5119C13.9165 87.5224 14.4365 88.4408 15.2158 89.1059C15.9951 89.771 16.9839 90.1402 18.0084 90.1487H83.2582C84.026 90.1584 84.7719 89.8921 85.3599 89.3981C85.9479 88.9041 86.3389 88.2153 86.4617 87.4573L100.063 3.96075C100.138 3.49914 100.111 3.02675 99.9837 2.57674C99.8566 2.12673 99.6324 1.71001 99.3271 1.35585C99.0217 1.00168 98.6425 0.718652 98.2161 0.526637C97.7897 0.334622 97.3265 0.238275 96.8589 0.24436L3.34981 0.227563ZM60.6215 59.9023H39.7954L34.1564 30.4415H65.668L60.6215 59.9023Z" fill="#2684FF"/>
<path d="M95.6549 30.4001H65.6097L60.5672 59.8375H39.7579L15.1869 89.0026C15.9657 89.676 16.9586 90.0504 17.9881 90.0589H83.2019C83.9692 90.0688 84.7146 89.8027 85.3022 89.3091C85.8898 88.8156 86.2806 88.1274 86.4034 87.3698L95.6549 30.4001Z" fill="url(#paint0_linear_527_251)"/>
<defs>
<linearGradient id="paint0_linear_527_251" x1="102.602" y1="38.6438" x2="67.8947" y2="87.9238" gradientUnits="userSpaceOnUse">
<stop offset="0.18" stop-color="#0052CC"/>
<stop offset="1" stop-color="#2684FF"/>
</linearGradient>
</defs>
</svg>
