<svg width="101" height="81" viewBox="0 0 101 81" fill="none" xmlns="http://www.w3.org/2000/svg">
<path fill-rule="evenodd" clip-rule="evenodd" d="M21.4271 0.763794C15.7212 0.763794 11.4991 5.75793 11.6882 11.174C11.8696 16.3773 11.6339 23.1163 9.9374 28.612C8.23486 34.1232 5.35752 37.6156 0.656738 38.0638V43.1247C5.35752 43.574 8.23486 47.0646 9.93721 52.5765C11.6339 58.0722 11.8694 64.8113 11.688 70.0146C11.4989 75.4298 15.721 80.4247 21.4278 80.4247H79.894C85.5999 80.4247 89.8212 75.4306 89.6321 70.0146C89.4507 64.8113 89.6864 58.0722 91.3829 52.5765C93.0854 47.0646 95.9558 43.5726 100.657 43.1247V38.0638C95.956 37.6146 93.0856 34.1239 91.3829 28.612C89.6862 23.1171 89.4507 16.3773 89.6321 11.174C89.8212 5.75872 85.5999 0.763794 79.894 0.763794H21.4263H21.4271ZM68.4534 49.8003C68.4534 57.2579 62.8907 61.7808 53.6593 61.7808H37.9448C37.4953 61.7808 37.0642 61.6022 36.7463 61.2844C36.4285 60.9665 36.2499 60.5354 36.2499 60.0859V21.1029C36.2499 20.6533 36.4285 20.2222 36.7463 19.9044C37.0642 19.5865 37.4953 19.4079 37.9448 19.4079H53.5698C61.2673 19.4079 66.319 23.5775 66.319 29.979C66.319 34.4722 62.9206 38.4947 58.5911 39.1993V39.4337C64.4849 40.0802 68.4534 44.1622 68.4534 49.8003ZM51.9458 24.7808H42.9856V37.437H50.5323C56.3663 37.437 59.5831 35.0878 59.5831 30.8888C59.5825 26.9536 56.8169 24.7808 51.9458 24.7808ZM42.9856 42.4587V56.4062H52.2755C58.3497 56.4062 61.5671 53.9689 61.5671 49.3884C61.5671 44.8079 58.2595 42.4579 51.8849 42.4579H42.9856V42.4587Z" fill="#7952B3"/>
</svg>
