<svg width="84" height="101" viewBox="0 0 84 101" fill="none" xmlns="http://www.w3.org/2000/svg">
<path d="M27.3613 100.649C27.3605 100.648 27.3596 100.648 27.3588 100.647C15.4748 97.9118 4.9514 90.1776 1.66811 78.0283C-1.61755 65.8697 2.85349 53.6122 10.1567 43.8662C13.8083 38.997 18.0792 34.6269 22.5218 30.4782C26.6574 26.6156 31.2135 23.0661 34.9597 18.8149C38.8232 14.4293 43.6522 6.58469 39.9868 0.655273C46.6419 5.62751 52.0094 13.9365 51.1121 22.4954C50.3952 29.3247 45.2714 36.2779 50.2901 42.7269C53.4121 46.7361 59.7317 45.8953 62.066 42.0235L61.8944 42.2081C62.2943 41.572 62.5869 40.8745 62.7607 40.1434C62.7728 39.5501 62.6677 38.8873 62.3466 38.1081L62.9579 38.4418C74.6589 44.5085 84.1047 55.1054 83.8401 68.8748C83.5206 85.6117 67.9272 97.3244 52.8359 100.655C59.9775 97.8419 66.3445 92.2692 67.2116 84.2567C68.0118 76.8643 64.0491 70.4906 58.6828 65.7767C53.5812 61.2915 47.4935 58.3998 41.9451 54.5736C38.7466 52.3682 33.892 47.9407 35.6003 43.4513C33.3778 45.3644 31.6234 48.0408 30.9313 50.8981C29.5487 56.5981 33.0625 61.0377 36.6949 64.9682C40.3687 68.9372 40.0844 75.7497 33.8874 77.1063C31.2352 77.6833 28.4265 76.6202 26.8228 74.4324C25.0977 72.0792 25.4775 69.6729 26.1738 67.0421C20.3817 71.1422 15.7248 77.381 15.7411 84.7294C15.7545 91.4686 21.3637 98.0549 27.3588 100.647C27.3597 100.648 27.3607 100.648 27.3617 100.648L27.3613 100.649Z" fill="#EE4323"/>
</svg>
