<svg width="101" height="101" viewBox="0 0 101 101" fill="none" xmlns="http://www.w3.org/2000/svg">
<path d="M0.76123 0.297241H100.761V100.297H0.76123V0.297241Z" fill="#CF4547"/>
<path d="M35.3619 50.9631C35.3149 51.0316 35.2326 51.2451 35.1112 51.6075C34.9897 51.9699 34.8428 52.4223 34.6705 52.9668C34.4981 53.5114 34.3101 54.1225 34.1103 54.7963C33.9085 55.4701 33.7009 56.1595 33.4894 56.8608C33.2759 57.5639 33.0722 58.2514 32.8763 58.9272C32.6804 59.601 32.5041 60.2121 32.3494 60.7566C32.1947 61.3012 32.0654 61.7575 31.9616 62.1277C31.8578 62.496 31.7951 62.7134 31.7716 62.7819C31.7148 62.9994 31.6227 63.2422 31.4954 63.5086C31.3681 63.775 31.2192 64.0257 31.0468 64.2647C30.8745 64.5037 30.6845 64.7015 30.4769 64.8582C30.2692 65.0149 30.0557 65.0932 29.8383 65.0932C29.4701 65.0932 29.2017 64.9698 29.0353 64.725C28.8688 64.4801 28.7845 64.0296 28.7845 63.3754V63.0895C28.7845 62.9935 28.7904 62.8916 28.8022 62.7839C28.8139 62.5665 28.9001 62.1571 29.0607 61.5558C29.2213 60.9564 29.4152 60.2787 29.6385 59.5207C29.8618 58.7627 30.1047 57.9811 30.3633 57.1683C30.6218 56.3574 30.8549 55.6307 31.0625 54.9902C30.4514 55.6718 29.7913 56.3495 29.0764 57.0253C28.3634 57.701 27.6309 58.3063 26.8846 58.8449C26.1364 59.3836 25.3823 59.8243 24.6223 60.1631C23.8623 60.504 23.1317 60.6744 22.4305 60.6744C21.6255 60.6744 20.9321 60.4961 20.3503 60.1436C19.7686 59.789 19.2887 59.3248 18.9087 58.7529C18.5287 58.1809 18.2467 57.5326 18.0626 56.8098C17.8784 56.0871 17.7864 55.3643 17.7864 54.6415V54.3752C17.7864 54.2929 17.7923 54.2126 17.804 54.1303C17.8726 52.8219 18.0606 51.4782 18.3642 50.1012C18.6698 48.7243 19.0693 47.3532 19.5649 45.9919C20.0604 44.6286 20.6324 43.2967 21.2827 41.9941C21.933 40.6916 22.6401 39.4615 23.4059 38.3039C24.1718 37.1463 24.9846 36.0788 25.8484 35.1034C26.7122 34.128 27.5976 33.2896 28.5064 32.5884C29.4152 31.8872 30.3339 31.3388 31.2603 30.9431C32.1868 30.5474 33.1055 30.3496 34.0143 30.3496C35.0622 30.3496 36.0749 30.6356 37.0523 31.2075C38.0297 31.7795 38.9444 32.7079 39.7964 33.9889C39.9923 34.2749 40.1157 34.5648 40.1666 34.8586C40.2175 35.1524 40.245 35.4285 40.245 35.6871C40.245 36.3002 40.0981 36.784 39.8043 37.1385C39.5104 37.493 39.1618 37.6693 38.7603 37.6693C38.392 37.6693 38.0492 37.4754 37.7339 37.0856C37.4166 36.6978 37.064 36.1415 36.6723 35.4188C36.304 34.7645 35.8986 34.2905 35.4559 33.9967C35.0132 33.7029 34.5314 33.558 34.0143 33.558C33.2093 33.558 32.3474 33.8929 31.4327 34.5608C30.518 35.2288 29.6111 36.1121 28.714 37.209C27.8169 38.3059 26.9551 39.5595 26.1324 40.9717C25.3098 42.382 24.5811 43.8275 23.9485 45.3063C23.3158 46.7851 22.8124 48.2444 22.4383 49.6821C22.0642 51.1198 21.8781 52.4125 21.8781 53.5584C21.8781 53.9403 21.9036 54.3321 21.9565 54.7336C22.0094 55.1351 22.1053 55.5014 22.2503 55.8285C22.3933 56.1556 22.5891 56.4259 22.8379 56.6355C23.0847 56.847 23.3981 56.9528 23.7781 56.9528C24.2031 56.9528 24.6869 56.8098 25.2275 56.5239C25.7681 56.2379 26.3303 55.8638 26.9101 55.3996C27.4918 54.9353 28.0755 54.4104 28.6631 53.8248C29.2507 53.2391 29.7972 52.6456 30.3025 52.0462C30.8079 51.4469 31.2584 50.871 31.6482 50.3187C32.0399 49.7663 32.3337 49.2864 32.5276 48.8771L34.1338 44.0723C34.3297 43.5552 34.5862 43.187 34.9016 42.9676C35.2189 42.7502 35.5441 42.6405 35.877 42.6405C36.0376 42.6405 36.1983 42.6679 36.3608 42.7228C36.5214 42.7776 36.6664 42.8619 36.7917 42.9794C36.9191 43.0949 37.019 43.2458 37.0934 43.4299C37.1678 43.614 37.205 43.8295 37.205 44.0743C37.205 44.7285 37.1482 45.3416 37.0327 45.9155C36.9171 46.4894 36.7702 47.0476 36.592 47.5921C36.4137 48.1367 36.2159 48.6871 35.9965 49.2375C35.7811 49.7859 35.5676 50.3618 35.3619 50.9631ZM57.131 54.9706C56.6237 55.6522 56.0341 56.3162 55.3623 56.9646C54.6885 57.6129 53.9951 58.1888 53.2821 58.6922C52.5692 59.1955 51.866 59.601 51.1765 59.9085C50.4851 60.216 49.8642 60.3688 49.3118 60.3688C48.7595 60.3688 48.3109 60.1847 47.9642 59.8165C47.6195 59.4482 47.4471 58.8214 47.4471 57.9341C47.4471 57.3073 47.5392 56.5767 47.7233 55.7463C47.4236 56.279 47.0495 56.8177 46.601 57.3622C46.1524 57.9067 45.6392 58.4042 45.0634 58.8547C44.4875 59.3052 43.8431 59.6695 43.1301 59.9477C42.4172 60.2278 41.6396 60.3669 40.7993 60.3669C40.4193 60.3669 40.053 60.3198 39.7024 60.2239C39.3518 60.1279 39.0443 59.9653 38.7798 59.7342C38.5154 59.5031 38.3019 59.1936 38.1413 58.8038C37.9807 58.416 37.9004 57.9283 37.9004 57.3426C37.9004 57.3289 37.9239 57.1213 37.9689 56.7197C38.014 56.3182 38.1609 55.6836 38.4096 54.8178C38.6564 53.9521 39.0403 52.8317 39.5575 51.4547C40.0765 50.0777 40.8071 48.4089 41.7493 46.4443C41.9902 45.9272 42.2703 45.5551 42.5856 45.3298C42.9029 45.1046 43.2437 44.9929 43.612 44.9929C43.7726 44.9929 43.9391 45.0164 44.1134 45.0634C44.2858 45.1124 44.4464 45.1868 44.5972 45.2887C44.7461 45.3905 44.8675 45.5198 44.9596 45.6765C45.0516 45.8332 45.0986 46.0134 45.0986 46.2191C45.0986 46.3562 45.081 46.4855 45.0458 46.6069C44.989 46.84 44.8656 47.1416 44.6736 47.5177C44.4836 47.8938 44.2623 48.3227 44.0096 48.8065C43.7569 49.2903 43.4886 49.8114 43.2065 50.3716C42.9245 50.9298 42.662 51.5096 42.4211 52.1089C42.1802 52.7083 41.9725 53.3194 41.8002 53.9384C41.6278 54.5593 41.5299 55.1626 41.5064 55.7482C41.5064 55.9931 41.5632 56.2183 41.6787 56.424C41.7943 56.6277 41.9843 56.7315 42.2487 56.7315C42.997 56.7315 43.7099 56.4866 44.3896 55.995C45.0693 55.5053 45.6961 54.8942 46.2719 54.1656C46.8478 53.4369 47.3688 52.6535 47.835 51.8132C48.3011 50.9748 48.6909 50.209 49.0004 49.5136C49.2198 49.0494 49.4117 48.5519 49.5782 48.0211C49.7447 47.4903 49.9269 46.9987 50.1227 46.5481C50.3186 46.0976 50.5419 45.7235 50.7965 45.4238C51.0492 45.1242 51.3665 44.9733 51.7465 44.9733C52.1598 44.9733 52.4889 45.13 52.7298 45.4434C52.9707 45.7568 53.0921 46.1329 53.0921 46.5677C53.0921 46.8126 53.0158 47.1514 52.8591 47.5804C52.7024 48.0093 52.5084 48.501 52.2714 49.0533C52.0364 49.6057 51.7798 50.1953 51.5036 50.8221C51.2275 51.4488 50.9709 52.0874 50.7358 52.7338C50.4988 53.3821 50.3049 54.0148 50.1482 54.6357C49.9935 55.2566 49.9151 55.8324 49.9151 56.3632C49.9151 56.8549 50.1678 57.0997 50.6751 57.0997C51.0316 57.0997 51.4742 56.9763 52.0051 56.7315C52.5359 56.4866 53.0902 56.1419 53.6719 55.6992C54.2537 55.2566 54.8334 54.7356 55.4152 54.1342C55.9969 53.5349 56.5121 52.8865 56.9606 52.1912L57.131 54.9706Z" fill="white" stroke="white" stroke-width="0.264085" stroke-miterlimit="10"/>
<path d="M57.6677 53.9482C57.5404 54.2616 57.417 54.6259 57.2955 55.0431C57.1741 55.4584 57.1153 55.8305 57.1153 56.1576C57.1153 56.3614 57.1506 56.5259 57.2191 56.6493C57.2877 56.7727 57.4209 56.8334 57.6167 56.8334C57.8577 56.8334 58.1593 56.7492 58.5236 56.5768C58.886 56.4064 59.2777 56.1812 59.6969 55.9011C60.118 55.6229 60.5548 55.3017 61.0092 54.9393C61.4636 54.5789 61.9161 54.2029 62.3647 53.815C62.8132 53.4253 63.2422 53.0374 63.6515 52.6496C64.0609 52.2598 64.4252 51.9033 64.7484 51.5762C64.8405 51.4803 64.9501 51.4117 65.0755 51.3725C65.2009 51.3314 65.3106 51.3118 65.4026 51.3118C65.6318 51.3118 65.8237 51.4078 65.9726 51.5978C66.1215 51.7878 66.1959 52.0404 66.1959 52.3538C66.1959 52.6398 66.1156 52.961 65.955 53.3156C65.7944 53.6701 65.5123 54.0187 65.1088 54.3576C64.3723 55.1626 63.63 55.9246 62.8818 56.6473C62.1335 57.3701 61.3892 58.0067 60.6469 58.559C59.9045 59.1114 59.168 59.5501 58.4374 59.8792C57.7068 60.2063 56.9958 60.3689 56.3044 60.3689C55.8324 60.3689 55.4387 60.2944 55.1213 60.1436C54.804 59.9928 54.5514 59.7891 54.3614 59.5306C54.1714 59.272 54.0362 58.9645 53.9559 58.61C53.8756 58.2554 53.8345 57.8813 53.8345 57.4857C53.8345 56.8177 53.9187 56.1322 54.0852 55.431C54.2517 54.7298 54.4495 54.0853 54.6806 53.4997C55.0841 52.4361 55.4915 51.3804 55.9068 50.3305C56.3201 49.2806 56.7001 48.3189 57.0468 47.4473L62.2765 34.2573C62.4841 33.7265 62.7623 33.3504 63.1148 33.133C63.4654 32.9156 63.82 32.8059 64.1765 32.8059C64.5329 32.8059 64.8581 32.9215 65.1519 33.1526C65.4457 33.3837 65.5926 33.7598 65.5926 34.2769C65.5926 34.5217 65.5436 34.7822 65.4457 35.0545C65.3478 35.3268 65.2244 35.6206 65.0755 35.934C64.7876 36.5745 64.4448 37.358 64.0491 38.2844C63.6515 39.2109 63.2265 40.2196 62.7721 41.3106C62.3176 42.4016 61.8515 43.5357 61.3735 44.7149C60.8956 45.894 60.4294 47.0418 59.975 48.1602C59.5206 49.2787 59.0956 50.3383 58.6979 51.3392C58.2964 52.3421 57.9536 53.2118 57.6677 53.9482Z" fill="white" stroke="white" stroke-width="0.264085" stroke-miterlimit="10"/>
<path d="M82.1299 50.2462C82.2905 50.1365 82.4413 50.0484 82.5784 49.9798C82.7156 49.9113 82.8487 49.878 82.9761 49.878C83.2287 49.878 83.4187 49.9916 83.546 50.2149C83.6734 50.4401 83.736 50.7163 83.736 51.0434C83.736 51.3979 83.6596 51.7583 83.503 52.1266C83.3482 52.4948 83.1151 52.8004 82.8037 53.0472C81.5717 54.1382 80.4728 55.1332 79.5072 56.0322C78.5396 56.9313 77.6288 57.705 76.7709 58.3533C75.913 59.0016 75.0766 59.5011 74.2598 59.8556C73.443 60.2102 72.5675 60.3864 71.6351 60.3864C70.7596 60.3864 70.0838 60.1945 69.6059 59.8145C69.128 59.4325 68.889 58.9076 68.889 58.2397V58.0869C68.889 58.0399 68.8949 57.9811 68.9067 57.9126C68.9517 57.5032 69.1319 57.0331 69.4414 56.5023C69.7528 55.9715 70.1269 55.4191 70.5637 54.8452C71.0005 54.2713 71.4667 53.6935 71.9622 53.1079C72.4578 52.5222 72.9142 51.9659 73.3353 51.441C73.7545 50.9161 74.1031 50.4362 74.3793 49.9994C74.6555 49.5626 74.7945 49.21 74.7945 48.9358C74.7945 48.7713 74.7358 48.642 74.6222 48.548C74.5066 48.452 74.3166 48.405 74.0522 48.405C73.5919 48.405 73.1179 48.5245 72.6282 48.7634C72.1385 49.0024 71.6547 49.3217 71.1788 49.7232C70.7008 50.1248 70.2347 50.585 69.7802 51.1041C69.3258 51.6232 68.9008 52.1599 68.5032 52.72C68.1055 53.2802 67.7432 53.8404 67.4161 54.4065C67.089 54.9726 66.8089 55.4936 66.5797 55.9715C66.5111 56.1223 66.4132 56.3339 66.2859 56.6061C66.1586 56.8784 66.0215 57.1859 65.8726 57.5267C65.7218 57.8675 65.5651 58.2181 65.3966 58.5785C65.2301 58.9409 65.0774 59.2817 64.9403 59.601C64.8012 59.9222 64.6778 60.2062 64.5681 60.4609C64.4584 60.7135 64.3801 60.8859 64.335 60.9819C64.2763 61.1053 64.1822 61.3364 64.049 61.6772C63.9159 62.018 63.765 62.4157 63.5907 62.874C63.4183 63.3304 63.2362 63.8103 63.0481 64.3156C62.8582 64.821 62.6799 65.2969 62.5134 65.7474C62.3469 66.1979 62.2 66.5916 62.0727 66.9325C61.9454 67.2733 61.8651 67.5044 61.8298 67.6278C61.7143 67.9823 61.5791 68.3153 61.4244 68.6307C61.2696 68.944 61.0914 69.2202 60.8896 69.4592C60.6879 69.6982 60.4587 69.8881 60.1982 70.0311C59.9397 70.1741 59.6478 70.2446 59.3266 70.2446C58.9114 70.2446 58.5705 70.1447 58.2983 69.9489C58.028 69.751 57.8928 69.373 57.8928 68.8148C57.8928 68.5425 57.9281 68.2624 57.9966 67.9764C58.0652 67.6905 58.1533 67.4065 58.2552 67.1283C58.359 66.8482 58.4648 66.576 58.5745 66.3115C58.6841 66.0452 58.784 65.7905 58.8761 65.5437C59.497 64.1805 60.1316 62.8133 60.776 61.4441C61.4205 60.073 62.0394 58.7176 62.6309 57.3739C63.2244 56.0322 63.7729 54.7121 64.2802 53.4173C64.7855 52.1226 65.2066 50.8808 65.5396 49.6958C65.6317 49.451 65.759 49.1023 65.9196 48.6518C66.0802 48.2013 66.2643 47.7586 66.472 47.3218C66.6796 46.885 66.9127 46.507 67.1712 46.1877C67.4298 45.8665 67.7099 45.7079 68.0076 45.7079C68.4679 45.7079 68.8009 45.8136 69.0085 46.0252C69.2161 46.2367 69.3199 46.5462 69.3199 46.9556C69.3199 47.0378 69.3082 47.1671 69.2847 47.3434C69.2612 47.5197 69.2318 47.7077 69.1985 47.9055C69.1632 48.1034 69.126 48.2914 69.0869 48.4677C69.0457 48.644 69.0085 48.7732 68.9752 48.8555C69.4002 48.3913 69.8605 47.933 70.3561 47.4746C70.8516 47.0182 71.3629 46.6049 71.8937 46.2367C72.4225 45.8685 72.9631 45.5688 73.5155 45.3357C74.0678 45.1046 74.6202 44.989 75.1726 44.989C75.5526 44.989 75.9286 45.0439 76.3027 45.1535C76.6769 45.2632 77.0098 45.4219 77.3036 45.6334C77.5974 45.845 77.8364 46.1114 78.0205 46.4306C78.2046 46.7519 78.2967 47.122 78.2967 47.5451C78.2967 48.1053 78.1557 48.7008 77.8736 49.3354C77.5916 49.97 77.237 50.6066 76.812 51.2471C76.385 51.8876 75.9247 52.5124 75.4311 53.1177C74.9356 53.7249 74.4733 54.2772 74.0404 54.7747C73.6095 55.2722 73.2471 55.6953 72.9533 56.042C72.6595 56.3907 72.5068 56.6257 72.495 56.7472C72.495 56.9117 72.5479 57.0429 72.6497 57.1467C72.7516 57.2505 72.9259 57.2995 73.1688 57.2995C73.3647 57.2995 73.6526 57.1898 74.0326 56.9724C74.4126 56.755 74.9454 56.377 75.6289 55.8383C76.3125 55.2997 77.1822 54.5769 78.236 53.67C79.2898 52.7651 80.5884 51.6232 82.1299 50.2462Z" fill="white" stroke="white" stroke-width="0.264085" stroke-miterlimit="10"/>
</svg>
