<svg width="101" height="101" viewBox="0 0 101 101" fill="none" xmlns="http://www.w3.org/2000/svg">
<path d="M96.0315 0.297119H47.8767C47.8767 6.06236 50.1669 11.5915 54.2436 15.6681C58.3202 19.7447 63.8493 22.035 69.6145 22.035H78.4852V30.5998C78.493 42.5943 88.2144 52.3161 100.209 52.3239V4.47455C100.209 2.16807 98.3391 0.297119 96.0315 0.297119Z" fill="#2684FF"/>
<path d="M72.2047 24.2909H24.0502C24.0576 36.2855 33.779 46.0072 45.7739 46.015H54.6446V54.6072C54.6599 66.6018 64.3879 76.3168 76.3825 76.3168V28.4691C76.3825 26.1619 74.5119 24.2913 72.2047 24.2913V24.2909Z" fill="url(#paint0_linear_527_2467)"/>
<path d="M48.3638 48.2711H0.208984C0.208984 60.2766 9.9417 70.0089 21.9468 70.0089H30.8453V78.5733C30.8531 90.5569 40.5577 100.274 52.5416 100.297V52.4489C52.5416 50.1416 50.6711 48.2711 48.3638 48.2711Z" fill="url(#paint1_linear_527_2467)"/>
<defs>
<linearGradient id="paint0_linear_527_2467" x1="75.3521" y1="24.3747" x2="54.9923" y2="45.6193" gradientUnits="userSpaceOnUse">
<stop offset="0.18" stop-color="#0052CC"/>
<stop offset="1" stop-color="#2684FF"/>
</linearGradient>
<linearGradient id="paint1_linear_527_2467" x1="52.8896" y1="48.5078" x2="29.3384" y2="71.6791" gradientUnits="userSpaceOnUse">
<stop offset="0.18" stop-color="#0052CC"/>
<stop offset="1" stop-color="#2684FF"/>
</linearGradient>
</defs>
</svg>
