<svg width="101" height="96" viewBox="0 0 101 96" fill="none" xmlns="http://www.w3.org/2000/svg">
<path d="M6.51416 66.1085C6.61 66.3252 6.71833 66.5252 6.835 66.7252C6.88917 66.8418 6.96417 66.9627 7.03084 67.071C7.13917 67.2877 7.25584 67.496 7.36834 67.7043L8.02251 68.8044C8.14335 69.0085 8.26002 69.2085 8.39752 69.4085C8.62669 69.8002 8.89752 70.1835 9.13503 70.5752C9.24336 70.7377 9.34336 70.9002 9.4642 71.0627C9.92253 71.7752 10.3392 72.3669 10.785 72.9419C11.1017 73.3711 11.4184 73.7919 11.7601 74.2127C11.8726 74.3711 11.9976 74.5294 12.1142 74.6877L13.0351 75.8044C13.1476 75.9336 13.2601 76.0836 13.3809 76.2169C13.7892 76.7086 14.2226 77.1836 14.6559 77.6669C14.6559 77.6753 14.6684 77.6836 14.6768 77.6961C15.2143 78.3711 15.7934 78.9711 16.4268 79.5045L16.4434 79.5211C16.7768 79.8628 17.1101 80.2003 17.4643 80.5336L17.8851 80.9378C18.3476 81.3711 18.8101 81.8003 19.2976 82.217C19.306 82.217 19.3101 82.2253 19.3185 82.2295L19.556 82.4378C19.981 82.8086 20.4101 83.1753 20.8477 83.517L21.3685 83.9545C21.7227 84.2378 22.0893 84.5045 22.4518 84.7837L23.0185 85.217C23.406 85.5087 23.8185 85.792 24.2144 86.0753C24.3602 86.1795 24.506 86.2837 24.656 86.3795L24.7769 86.4753L25.9477 87.242L26.4477 87.5754C27.0602 87.967 27.6686 88.3337 28.2769 88.7004C28.4519 88.7879 28.6269 88.8837 28.7894 88.9837C29.2394 89.242 29.7061 89.5045 30.1602 89.742C30.4103 89.8837 30.6686 90.0045 30.9269 90.1337C31.2394 90.3087 31.5644 90.4795 31.8978 90.6545C31.9894 90.6837 32.0644 90.7129 32.1394 90.7545L32.1561 90.7379C32.2936 90.8004 32.4228 90.8671 32.5561 90.9337C33.0561 91.1837 33.577 91.4212 34.1186 91.6546C34.2186 91.6962 34.327 91.7379 34.4353 91.7962C35.0353 92.0587 35.6353 92.3087 36.2561 92.5504C36.3978 92.5921 36.5478 92.6629 36.6937 92.7171C37.2562 92.9296 37.8353 93.1462 38.4103 93.3504L38.6187 93.4254C39.2562 93.6421 39.8854 93.8504 40.5354 94.0462C40.6854 94.0879 40.8395 94.1421 40.9979 94.1837C41.6604 94.3838 42.302 94.6213 42.9729 94.7463C85.7775 102.509 98.2151 69.1377 98.2151 69.1377C87.765 82.6795 69.219 86.2503 51.6563 82.2753C51.0063 82.1253 50.3563 81.917 49.698 81.7253C48.7687 81.4623 47.8475 81.1719 46.9354 80.8545L47.3313 80.9753L47.0729 80.8753C46.5063 80.6836 45.9604 80.4711 45.4062 80.2586C45.2706 80.2011 45.133 80.1483 44.9937 80.1003L44.9479 80.0878C44.3354 79.842 43.7396 79.5919 43.1479 79.3294C43.0187 79.2878 42.9104 79.2294 42.7812 79.1795C42.0804 78.874 41.3858 78.5545 40.6979 78.2211L41.2729 78.4753C41.1228 78.4089 40.9755 78.3367 40.8312 78.2586C40.4395 78.0753 40.0479 77.8669 39.6645 77.6711C39.3726 77.5327 39.0849 77.3855 38.802 77.2294L38.8853 77.2711C38.4145 77.0211 37.9437 76.7503 37.4687 76.4961C37.327 76.3961 37.1645 76.3128 37.002 76.2211C36.2959 75.8107 35.5986 75.3856 34.9103 74.9461L35.1728 75.1044C34.9964 74.9955 34.8241 74.8801 34.6561 74.7586L34.6811 74.7752C34.2333 74.5002 33.7942 74.2111 33.3644 73.9086C33.2228 73.8169 33.0936 73.7169 32.9478 73.6169C32.4989 73.3105 32.0571 72.9937 31.6228 72.6669L31.7228 72.7377C31.5478 72.5961 31.3603 72.4627 31.1728 72.3252C30.8061 72.0377 30.4353 71.7627 30.0686 71.4627L29.5769 71.071C29.0529 70.6541 28.5389 70.2248 28.0352 69.7835L28.0311 69.7794L26.5852 68.4669L26.1685 68.0752C25.8269 67.7293 25.4769 67.4002 25.1269 67.0585L24.7227 66.6418C24.2913 66.2146 23.8703 65.777 23.4602 65.3293L23.4352 65.3002L23.3643 65.2418C22.9232 64.7573 22.4884 64.267 22.0602 63.771C21.9477 63.6418 21.8435 63.5043 21.7268 63.3668L20.781 62.221C20.3546 61.6854 19.9379 61.1423 19.531 60.5918L19.3643 60.3584C9.62253 47.125 6.09749 28.8623 13.8934 13.8788L7.01 22.5831C-1.84426 35.2457 -0.748415 51.7125 6.02249 65.1585C6.17666 65.4877 6.3475 65.796 6.51416 66.1085Z" fill="white"/>
<path d="M36.3353 47.8667L36.2894 47.8L36.2519 47.75L36.3353 47.8667Z" fill="black"/>
<path d="M40.9937 53.3332L41.3687 53.7082C41.8437 54.1665 42.3312 54.6124 42.827 55.0582L42.8895 55.1124C43.3895 55.554 43.952 56.0165 44.5312 56.4665L44.6187 56.5332C44.7604 56.6291 44.8812 56.7416 45.0187 56.8374C45.602 57.2874 46.1896 57.7166 46.8021 58.1457L46.8646 58.1832C47.1229 58.3707 47.3979 58.5416 47.6896 58.7249C47.8062 58.7999 47.9396 58.8999 48.0646 58.9749C48.5062 59.2582 48.9396 59.5207 49.3854 59.7916C49.4562 59.8207 49.5188 59.8582 49.5854 59.8874C49.9604 60.1166 50.3688 60.3374 50.7604 60.5374C50.8979 60.6208 51.0313 60.6833 51.1729 60.7624C51.4521 60.8999 51.7271 61.0458 51.9938 61.1874L52.1271 61.2458C52.6896 61.5208 53.2646 61.7791 53.8271 62.0333C53.9688 62.0874 54.0896 62.1333 54.2105 62.1916C54.673 62.3916 55.1438 62.5833 55.6063 62.7583C55.8146 62.8291 56.0105 62.9124 56.2063 62.9749C56.6313 63.1333 57.0772 63.2791 57.498 63.4249L58.0813 63.6125C58.6897 63.8 59.3063 64.0458 59.9522 64.1458C93.0067 69.5875 100.657 44.2664 100.657 44.2664C93.7692 54.129 80.4399 58.8291 66.2356 55.1582C65.5265 54.9794 64.8234 54.7779 64.1272 54.554L64.3647 54.6207C64.1647 54.5665 63.9897 54.504 63.7981 54.4457C63.3647 54.2957 62.9189 54.1499 62.498 53.9957L61.898 53.7707C61.4314 53.5832 60.9564 53.4082 60.5022 53.2082C60.3605 53.1457 60.2314 53.104 60.123 53.0415C59.5397 52.779 58.9522 52.5207 58.3813 52.2457L57.523 51.7998L57.0272 51.5498C56.6438 51.3498 56.2896 51.1415 55.923 50.929C55.8295 50.8851 55.739 50.835 55.6521 50.779L55.6646 50.7832C55.223 50.5082 54.7646 50.2415 54.3396 49.9623C54.198 49.8831 54.0688 49.7873 53.9355 49.704L53.0688 49.1415C52.4688 48.7248 51.8813 48.279 51.2854 47.8456C51.1521 47.7248 51.0229 47.6248 50.8938 47.5165C44.6479 42.6289 39.7228 35.9497 37.3853 28.3871C34.9228 20.5245 35.4644 11.7078 39.7187 4.55353L34.4894 11.9203C28.0685 21.0912 28.431 33.3497 33.4311 43.0497C34.3436 44.8414 35.2686 46.3539 36.2895 47.7956C37.2395 49.154 38.2895 50.7457 39.5562 51.8373C40.0062 52.3498 40.4895 52.8373 40.9937 53.3332Z" fill="white"/>
<path d="M57.598 3.94518C53.8105 9.4744 53.448 16.3411 56.0563 22.437C58.8272 28.9121 64.4897 33.9955 71.0898 36.4038C71.3607 36.508 71.6232 36.5955 71.9023 36.6955L72.269 36.808C72.6523 36.9288 73.0398 37.0705 73.4357 37.158C91.69 40.6622 96.6318 27.8329 97.961 25.9454C93.6151 32.1538 86.3275 33.6455 77.3857 31.483C76.6082 31.2934 75.8429 31.0568 75.094 30.7746L75.2315 30.8204C74.2997 30.4979 73.3871 30.1223 72.4982 29.6954L72.6565 29.7663C70.9482 28.9329 69.4815 28.0329 68.119 26.9996C60.1272 20.9578 55.1855 9.45357 60.4022 0.0826416L57.598 3.94518Z" fill="white"/>
</svg>
