<svg width="97" height="100" viewBox="0 0 97 100" fill="none" xmlns="http://www.w3.org/2000/svg">
<path d="M96.6185 23.004C96.6543 23.1365 96.6726 23.2731 96.673 23.4104V44.7445C96.673 45.0183 96.6007 45.2873 96.4634 45.5242C96.3262 45.7612 96.1288 45.9577 95.8913 46.0939L77.9852 56.4032V76.8371C77.9852 77.3932 77.6896 77.9065 77.2074 78.1865L39.8299 99.7034C39.7444 99.752 39.6511 99.7832 39.5577 99.8162C39.5227 99.8279 39.4897 99.8493 39.4527 99.859C39.1914 99.9278 38.9168 99.9278 38.6555 99.859C38.6127 99.8473 38.5739 99.824 38.533 99.8084C38.4475 99.7773 38.358 99.7501 38.2764 99.7034L0.906655 78.1865C0.669256 78.0501 0.472002 77.8536 0.334772 77.6167C0.197543 77.3798 0.125188 77.1109 0.125 76.8371L0.125 12.8347C0.125 12.6947 0.144444 12.5586 0.179444 12.4264C0.19111 12.3816 0.218332 12.3408 0.233887 12.2961C0.263053 12.2144 0.290275 12.1308 0.333052 12.055C0.362219 12.0044 0.404996 11.9636 0.439995 11.9169C0.484717 11.8547 0.525549 11.7905 0.578049 11.7361C0.62277 11.6914 0.681103 11.6583 0.731657 11.6194C0.788045 11.5728 0.8386 11.5222 0.902766 11.4853H0.90471L19.5905 0.726799C19.8271 0.590652 20.0953 0.518997 20.3683 0.518997C20.6413 0.518997 20.9095 0.590652 21.1461 0.726799L39.8319 11.4853H39.8358C39.898 11.5241 39.9505 11.5728 40.0069 11.6175C40.0574 11.6564 40.1138 11.6914 40.1586 11.7341C40.213 11.7905 40.2519 11.8547 40.2985 11.9169C40.3316 11.9636 40.3763 12.0044 40.4035 12.055C40.4483 12.1327 40.4735 12.2144 40.5047 12.2961C40.5202 12.3408 40.5474 12.3816 40.5591 12.4283C40.5949 12.5608 40.6132 12.6974 40.6135 12.8347V52.8099L56.1844 43.8442V23.4084C56.1844 23.2723 56.2039 23.1343 56.2389 23.004C56.2525 22.9573 56.2777 22.9165 56.2933 22.8718C56.3244 22.7901 56.3516 22.7065 56.3944 22.6307C56.4236 22.5801 56.4664 22.5393 56.4994 22.4926C56.5461 22.4304 56.585 22.3662 56.6394 22.3118C56.6841 22.267 56.7405 22.234 56.7911 22.1951C56.8494 22.1484 56.9 22.0979 56.9622 22.0609H56.9641L75.6519 11.3025C75.8884 11.1661 76.1566 11.0944 76.4297 11.0944C76.7027 11.0944 76.9709 11.1661 77.2074 11.3025L95.8932 22.0609C95.9594 22.0998 96.0099 22.1484 96.0682 22.1932C96.1169 22.232 96.1732 22.267 96.218 22.3098C96.2724 22.3662 96.3113 22.4304 96.358 22.4926C96.393 22.5393 96.4357 22.5801 96.463 22.6307C96.5077 22.7065 96.533 22.7901 96.5641 22.8718C96.5816 22.9165 96.6068 22.9573 96.6185 23.004ZM93.558 43.8442V26.1034L87.0189 29.8678L77.9852 35.0691V52.8099L93.56 43.8442H93.558ZM74.8722 75.9368V58.1843L65.9862 63.2592L40.6116 77.7412V95.661L74.8722 75.9368ZM3.23995 15.5277V75.9368L37.4966 95.659V77.7432L19.6003 67.6147L19.5944 67.6108L19.5866 67.6069C19.5264 67.572 19.4758 67.5214 19.4194 67.4786C19.3708 67.4397 19.3144 67.4086 19.2717 67.3658L19.2678 67.36C19.2172 67.3114 19.1822 67.2511 19.1394 67.1967C19.1005 67.1442 19.0539 67.0995 19.0228 67.045L19.0208 67.0392C18.9858 66.9809 18.9644 66.9109 18.9392 66.8447C18.9139 66.7864 18.8808 66.732 18.8653 66.6697V66.6678C18.8458 66.5939 18.8419 66.5161 18.8342 66.4403C18.8264 66.382 18.8108 66.3236 18.8108 66.2653V24.4934L9.77902 19.2901L3.23995 15.5296V15.5277ZM20.3702 3.87287L4.80132 12.8347L20.3664 21.7965L35.9333 12.8327L20.3664 3.87287H20.3702ZM28.4668 59.8021L37.4986 54.6027V15.5277L30.9595 19.2921L21.9258 24.4934V63.5684L28.4668 59.8021ZM76.4297 14.4485L60.8627 23.4104L76.4297 32.3722L91.9947 23.4084L76.4297 14.4485ZM74.8722 35.0691L65.8384 29.8678L59.2994 26.1034V43.8442L68.3312 49.0436L74.8722 52.8099V35.0691ZM39.0522 75.0482L61.8854 62.0129L73.2991 55.4991L57.7438 46.5431L39.8338 56.8543L23.5105 66.2517L39.0522 75.0482Z" fill="#FF2D20"/>
</svg>
