<svg width="101" height="100" viewBox="0 0 101 100" fill="none" xmlns="http://www.w3.org/2000/svg">
<path d="M92.3193 77.1364C86.8784 76.9987 82.6616 77.5511 79.1249 79.0697C78.1046 79.4836 76.4721 79.484 76.336 80.7959C76.8802 81.3482 76.9482 82.2458 77.4244 83.0049C78.2414 84.3855 79.6687 86.2497 80.961 87.2167C82.3891 88.3211 83.8179 89.4254 85.3136 90.3921C87.9664 92.0492 90.9593 93.0154 93.5436 94.6725C95.0405 95.6384 96.5358 96.882 98.0322 97.9173C98.7804 98.4688 99.2562 99.3672 100.209 99.7121V99.5053C99.7323 98.8835 99.5963 97.9863 99.1205 97.2959C98.4411 96.6054 97.7601 95.984 97.0799 95.2935C95.1077 92.6015 92.6594 90.254 90.007 88.3211C87.8307 86.8021 83.0693 84.7311 82.1854 82.1764C82.1854 82.1764 82.117 82.1077 82.0494 82.0387C83.5454 81.9006 85.3136 81.3482 86.7424 80.934C89.0547 80.3121 91.1629 80.4506 93.5436 79.8292C94.6316 79.553 95.7199 79.2078 96.8078 78.8626V78.2416C95.5843 76.9987 94.7 75.342 93.4076 74.1683C89.939 71.1298 86.1298 68.1617 82.1854 65.6764C80.0768 64.2955 77.356 63.3979 75.1117 62.2245C74.2962 61.8098 72.9354 61.6031 72.4597 60.9126C71.2349 59.394 70.5547 57.3921 69.6708 55.5969C67.699 51.7994 65.7941 47.5884 64.0936 43.5845C62.87 40.8917 62.1217 38.1989 60.6253 35.7141C53.62 23.9774 46.0025 16.8665 34.3045 9.89326C31.7878 8.4437 28.7953 7.82229 25.5987 7.06318C23.899 6.99373 22.1981 6.85604 20.498 6.7866C19.4096 6.30328 18.3213 4.9918 17.369 4.37039C13.493 1.88474 3.49442 -3.49965 0.637951 3.61128C-1.1986 8.09847 3.35877 12.5166 4.92245 14.7955C6.07958 16.3832 7.57525 18.178 8.39149 19.9732C8.86764 21.1462 9.00329 22.3898 9.47943 23.6322C10.5681 26.669 11.5877 30.0527 13.0165 32.8836C13.7647 34.3331 14.5806 35.8517 15.5329 37.1636C16.077 37.9227 17.0289 38.2684 17.2334 39.5108C16.2815 40.8917 16.2131 42.9631 15.6685 44.6888C13.2202 52.4902 14.1728 62.1555 17.6411 67.8855C18.729 69.6108 21.3138 73.4091 24.7825 71.9588C27.8434 70.7164 27.1632 66.7811 28.0467 63.3292C28.2515 62.4999 28.1155 61.9483 28.5232 61.396V61.5344C29.4755 63.4669 30.4274 65.3316 31.3116 67.2645C33.4203 70.6469 37.0926 74.1683 40.1531 76.5158C41.786 77.7578 43.078 79.8983 45.1186 80.6578V80.4502H44.9822C44.574 79.8288 43.9619 79.553 43.4181 79.0693C42.1941 77.8273 40.8333 76.3083 39.8814 74.9274C37.0253 71.0608 34.5082 66.7807 32.2639 62.3622C31.176 60.2226 30.2233 57.875 29.3394 55.735C28.9309 54.9056 28.9309 53.6636 28.2511 53.2497C27.2308 54.7683 25.7347 56.0802 24.9865 57.944C23.6949 60.9126 23.5585 64.5717 23.0823 68.3684C22.8103 68.4382 22.9459 68.3684 22.8099 68.5073C20.634 67.9541 19.8858 65.6764 19.0691 63.7431C17.0285 58.8417 16.6884 50.9712 18.4573 45.3102C18.9335 43.8603 20.9741 39.304 20.1579 37.9231C19.7497 36.6113 18.3889 35.8517 17.6411 34.8165C16.7572 33.5046 15.8045 31.8483 15.1928 30.3979C13.5603 26.5317 12.744 22.2513 10.9759 18.3851C10.1596 16.5899 8.73199 14.7265 7.57525 13.0694C6.28325 11.2055 4.85482 9.89327 3.83452 7.68419C3.49481 6.92509 3.01827 5.68226 3.56244 4.85371C3.69848 4.30134 3.97017 4.0946 4.51472 3.95651C5.39899 3.19661 7.91574 4.16325 8.79923 4.57753C11.316 5.61242 13.4242 6.57986 15.5329 8.02942C16.4847 8.71988 17.5051 10.0318 18.729 10.377H20.1575C22.3341 10.8599 24.7821 10.5151 26.8227 11.1361C30.4278 12.3095 33.692 14.0356 36.6168 15.8999C45.5267 21.6299 52.8714 29.7765 57.8368 39.5108C58.6531 41.098 58.9928 42.5488 59.741 44.2051C61.1698 47.5884 62.938 51.0403 64.3656 54.3541C65.7941 57.5984 67.1541 60.9126 69.1947 63.6054C70.215 65.0546 74.2954 65.8145 76.132 66.574C77.4924 67.195 79.601 67.7478 80.825 68.5069C83.1373 69.9561 85.4496 71.614 87.6263 73.2012C88.7146 74.0298 92.1148 75.7559 92.3193 77.1364Z" fill="white"/>
<path d="M22.9455 17.1419C21.7896 17.1419 20.9737 17.2808 20.1575 17.4875V17.6256H20.2935C20.8381 18.7304 21.7896 19.4899 22.4694 20.4561C23.0139 21.5604 23.4897 22.6656 24.0342 23.7703C24.1019 23.7009 24.1699 23.6322 24.1699 23.6322C25.1226 22.9414 25.5983 21.837 25.5983 20.1799C25.1902 19.697 25.1222 19.2137 24.7821 18.7304C24.3743 18.0395 23.4897 17.6947 22.9455 17.1419Z" fill="white"/>
</svg>
