<svg width="101" height="52" viewBox="0 0 101 52" fill="none" xmlns="http://www.w3.org/2000/svg">
<path fill-rule="evenodd" clip-rule="evenodd" d="M50.1045 51.2298C77.7188 51.2298 100.104 39.8849 100.104 25.8911C100.104 11.8974 77.7188 0.55249 50.1045 0.55249C22.4908 0.55249 0.104492 11.8974 0.104492 25.8911C0.104492 39.8849 22.4908 51.2298 50.1045 51.2298Z" fill="#6E81B6"/>
<path fill-rule="evenodd" clip-rule="evenodd" d="M60.2376 34.0809L62.7177 21.3164C63.2776 18.4354 62.8121 16.2866 61.335 14.9287C59.9039 13.6149 57.4746 12.9758 53.9086 12.9758H49.6134L50.842 6.65157C50.865 6.53386 50.8617 6.41252 50.8323 6.29625C50.8029 6.17998 50.7481 6.07166 50.6718 5.97907C50.5956 5.88648 50.4998 5.81192 50.3914 5.76073C50.2829 5.70953 50.1645 5.68298 50.0445 5.68298H44.1163C43.727 5.68298 43.3926 5.95929 43.3182 6.3414L40.684 19.8925C40.4445 18.3677 39.8544 17.0569 38.91 15.9753C37.1712 13.9849 34.4208 12.9758 30.7345 12.9758H19.2445C18.8551 12.9758 18.5208 13.2521 18.4464 13.6336L13.1156 41.0636C13.069 41.3024 13.1313 41.5479 13.2861 41.7353C13.4402 41.9233 13.67 42.0315 13.9136 42.0315H19.8884C20.2778 42.0315 20.6121 41.7552 20.6865 41.3725L21.9761 34.7381H26.4236C28.7574 34.7381 30.7188 34.4854 32.2496 33.9872C33.815 33.4781 35.2558 32.6147 36.5254 31.4261C37.5515 30.4835 38.3991 29.4278 39.0515 28.2894L37.9868 33.7695C37.9402 34.0084 38.0025 34.255 38.1573 34.4413C38.3115 34.6293 38.5418 34.7375 38.7849 34.7375H44.7131C45.1024 34.7375 45.4368 34.4612 45.5112 34.0797L48.4369 19.0231H52.5047C54.2381 19.0231 54.746 19.3683 54.8844 19.5165C55.0096 19.6519 55.2696 20.1289 54.9775 21.6326L52.6196 33.7689C52.597 33.8866 52.6006 34.0078 52.6302 34.1239C52.6599 34.24 52.7148 34.3481 52.791 34.4406C52.8672 34.533 52.9629 34.6075 53.0712 34.6588C53.1795 34.71 53.2978 34.7367 53.4176 34.7369H59.4402C59.6286 34.7373 59.8113 34.672 59.9568 34.5523C60.1024 34.4326 60.2017 34.2659 60.2376 34.0809ZM32.7533 23.5341C32.3808 25.4477 31.6795 26.8123 30.6674 27.5904C29.6395 28.3831 27.9956 28.7845 25.7809 28.7845H23.1327L25.0475 18.9306H28.4714C30.9866 18.9306 31.9999 19.4681 32.4068 19.9185C32.9709 20.5437 33.0907 21.7946 32.7533 23.5341ZM85.2086 15.9753C83.4704 13.9849 80.72 12.9758 77.0337 12.9758H65.5437C65.1537 12.9758 64.82 13.2521 64.7456 13.6336L59.4154 41.0636C59.3682 41.3024 59.4305 41.5479 59.5853 41.7353C59.74 41.9227 59.9704 42.0315 60.2122 42.0315H66.1876C66.5776 42.0315 66.9113 41.7552 66.9857 41.3725L68.2753 34.7381H72.7234C75.0578 34.7381 77.0174 34.4854 78.5488 33.9872C80.1148 33.4781 81.5556 32.6147 82.8246 31.4261C83.8839 30.4533 84.7552 29.3595 85.4154 28.1787C86.0756 26.9979 86.549 25.6811 86.8253 24.2639C87.5043 20.7686 86.9608 17.9801 85.2086 15.9753ZM79.3917 23.5341C79.0186 25.4477 78.3173 26.8123 77.3064 27.5904C76.2779 28.3831 74.634 28.7845 72.4199 28.7845H69.7711L71.6853 18.9306H75.1098C77.625 18.9306 78.6383 19.4681 79.0458 19.9185C79.6087 20.5437 79.729 21.7946 79.3917 23.5341Z" fill="white"/>
<path fill-rule="evenodd" clip-rule="evenodd" d="M28.3015 18.1175C30.5712 18.1175 32.0845 18.5365 32.8409 19.3745C33.5967 20.2125 33.7768 21.6515 33.3814 23.6896C32.9679 25.8124 32.1722 27.3275 30.9932 28.2357C29.8142 29.1438 28.0197 29.5972 25.611 29.5972H21.976L24.207 18.1175H28.3015ZM13.743 41.2184H19.7178L21.1356 33.9262H26.2537C28.5119 33.9262 30.3699 33.6886 31.8282 33.214C33.2865 32.7394 34.6124 31.9443 35.8053 30.8276C36.8065 29.908 37.6167 28.8923 38.237 27.7822C38.8568 26.6721 39.2969 25.4478 39.5575 24.1086C40.1899 20.857 39.7129 18.3243 38.1276 16.5105C36.5429 14.696 34.0211 13.7891 30.5645 13.7891H19.0745L13.743 41.2184ZM43.9458 6.49634H49.874L48.4568 13.7891H53.7387C57.0604 13.7891 59.3537 14.3683 60.6149 15.5274C61.8761 16.6864 62.254 18.5649 61.7498 21.1617L59.2697 33.9262H53.2471L55.6051 21.7893C55.873 20.4084 55.775 19.467 55.3088 18.9646C54.8427 18.4628 53.8505 18.2112 52.3342 18.2112H47.5964L44.5425 33.9262H38.6143L43.9458 6.49634ZM74.94 18.1175C77.2097 18.1175 78.7224 18.5365 79.4794 19.3745C80.2352 20.2125 80.4147 21.6515 80.0193 23.6896C79.607 25.8124 78.8113 27.3275 77.6317 28.2357C76.4533 29.1438 74.6582 29.5972 72.2507 29.5972H68.6157L70.8461 18.1175H74.94ZM60.3803 41.2184H66.3557L67.7729 33.9262H72.8909C75.1498 33.9262 77.0077 33.6886 78.4661 33.214C79.9244 32.7394 81.2503 31.9443 82.4432 30.8276C83.4444 29.908 84.2546 28.8923 84.8743 27.7822C85.4941 26.6721 85.9348 25.4478 86.196 24.1086C86.8278 20.857 86.3508 18.3243 84.7661 16.5105C83.1802 14.696 80.659 13.7891 77.2024 13.7891H65.7124L60.3803 41.2184Z" fill="black"/>
</svg>
