<svg width="101" height="101" viewBox="0 0 101 101" fill="none" xmlns="http://www.w3.org/2000/svg">
<path d="M90.334 20.331C84.2894 12.5036 76.0593 6.64467 66.6847 3.49504C57.31 0.345398 47.2119 0.0465822 37.6674 2.63638C28.1229 5.22617 19.5608 10.5883 13.064 18.0445C6.56711 25.5007 2.42732 34.7161 1.16818 44.5252C-0.0909635 54.3343 1.5871 64.2965 5.99013 73.1519C10.3932 82.0072 17.3234 89.358 25.9044 94.2745C34.4853 99.1909 44.3315 101.452 54.1977 100.772C64.0639 100.093 73.507 96.5023 81.3325 90.4554C103.176 73.5743 107.207 42.1824 90.3324 20.331H90.334Z" fill="#FF6C37"/>
<path d="M67.6247 32.7496L46.5422 53.9995L40.5845 47.8745C61.3342 27.1247 63.417 28.9996 67.6263 32.7496H67.6247Z" fill="white"/>
<path d="M46.5421 54.5807C46.3553 54.5761 46.1771 54.502 46.0421 54.3728L40.0421 48.3729C39.907 48.2331 39.8315 48.0462 39.8315 47.8518C39.8315 47.6574 39.907 47.4706 40.0421 47.3307C60.4998 26.8731 63.2919 27.8309 68.1247 32.2059C68.2056 32.2706 68.2703 32.3533 68.3137 32.4474C68.3571 32.5415 68.378 32.6445 68.3747 32.748C68.4059 32.9512 68.3278 33.159 68.1669 33.2902L47.0843 54.3744C46.9364 54.5099 46.7426 54.5842 46.5421 54.5822V54.5807ZM41.6249 47.8729L46.5421 52.79L66.5419 32.7902C65.8514 31.9248 64.866 31.3444 63.7744 31.1599C62.6827 30.9754 61.5613 31.1998 60.6248 31.7902C56.9998 33.4152 51.167 38.373 41.6249 47.8729Z" fill="#FF6C37"/>
<path d="M52.5842 59.8743L46.8342 53.9994L67.917 33.1653C73.5841 38.7074 65.167 47.9573 52.5842 59.8727V59.8743Z" fill="white"/>
<path d="M52.5843 60.6243C52.3999 60.6096 52.2249 60.5369 52.0844 60.4165L46.2094 54.6665C46.1213 54.4529 46.1213 54.213 46.2094 53.9994C46.1469 53.824 46.1469 53.6325 46.2094 53.4572L67.2921 32.3746C67.4387 32.2369 67.6323 32.1602 67.8334 32.1602C68.0346 32.1602 68.2282 32.2369 68.3749 32.3746C69.0576 33.003 69.597 33.7711 69.9564 34.6266C70.3158 35.4821 70.4868 36.4049 70.4576 37.3324C70.4576 42.9573 64.0405 50.04 53.125 60.3743C52.9791 60.5186 52.7872 60.6071 52.5828 60.6243H52.5843ZM47.9172 53.9994L52.625 58.7056C60.9577 50.8306 68.917 42.7057 68.9577 37.2058C69.003 36.0398 68.6175 34.898 67.8749 33.998L47.9172 53.9994Z" fill="#FF6C37"/>
<path d="M40.7502 47.9995L44.9173 52.1666C44.9439 52.1901 44.9652 52.219 44.9798 52.2513C44.9944 52.2836 45.0019 52.3187 45.0019 52.3541C45.0019 52.3896 44.9944 52.4247 44.9798 52.457C44.9652 52.4893 44.9439 52.5182 44.9173 52.5416L36.1252 54.4166C35.9477 54.4549 35.7626 54.4342 35.598 54.3575C35.4334 54.2809 35.2983 54.1526 35.2134 53.9921C35.1285 53.8316 35.0983 53.6478 35.1275 53.4686C35.1568 53.2894 35.2437 53.1246 35.3752 52.9994L40.5002 47.9167C40.5002 47.9167 40.6673 47.9167 40.7502 47.9995Z" fill="white"/>
<path d="M35.9172 55.2494C35.6394 55.2459 35.3672 55.1713 35.1264 55.0326C34.8857 54.8939 34.6846 54.6958 34.5422 54.4572C34.382 54.155 34.3239 53.8091 34.3766 53.4712C34.4292 53.1332 34.5898 52.8214 34.8344 52.5822L39.9172 47.4573C40.1005 47.2935 40.3377 47.2029 40.5836 47.2029C40.8294 47.2029 41.0666 47.2935 41.25 47.4573L45.4171 51.6244C45.664 51.8588 45.7608 52.2135 45.6671 52.5416C45.5733 52.8697 45.2983 53.1307 44.9593 53.2088L36.1672 55.0838L35.9172 55.2494ZM40.5843 48.9167L35.8766 53.6244L43.6687 51.9572L40.5843 48.9167Z" fill="#FF6C37"/>
<path d="M78.8341 21.0404C75.8185 18.131 71.0809 18.0092 67.9184 20.7544C64.7559 23.4997 64.2152 28.2122 66.6778 31.6028C69.1403 34.9934 73.7825 35.9434 77.3763 33.7903L71.709 28.1231L78.8341 21.0404Z" fill="white"/>
<path d="M73.2092 35.7059C71.4767 35.6837 69.7889 35.1521 68.3564 34.1775C66.9238 33.2028 65.8097 31.8281 65.153 30.2247C64.4967 28.6225 64.3245 26.863 64.6578 25.164C64.991 23.465 65.8151 21.9009 67.028 20.6654C68.6961 19.0278 70.9404 18.1104 73.278 18.1104C75.6156 18.1104 77.8598 19.0278 79.528 20.6654C79.6873 20.7997 79.778 20.9982 79.778 21.2076C79.7776 21.3106 79.7551 21.4123 79.7119 21.5058C79.6688 21.5994 79.6061 21.6826 79.528 21.7497L72.778 28.1247L77.903 33.1669C77.986 33.2461 78.0484 33.3446 78.0846 33.4535C78.1208 33.5625 78.1298 33.6786 78.1108 33.7918C78.0984 33.9011 78.0622 34.0063 78.0047 34.1C77.9472 34.1937 77.8698 34.2736 77.778 34.334C76.4011 35.1946 74.8184 35.6695 73.1952 35.709L73.2092 35.7059ZM73.2092 19.5388C70.2405 19.5544 67.5842 21.3404 66.4702 24.07C65.3561 26.7997 65.9623 29.9419 68.0436 32.0387C69.0788 33.08 70.4043 33.7843 71.8466 34.0594C73.2888 34.3346 74.7806 34.1678 76.1264 33.5809L71.2092 28.6638C71.131 28.6013 71.0679 28.522 71.0246 28.4318C70.9812 28.3416 70.9587 28.2428 70.9587 28.1427C70.9587 28.0426 70.9812 27.9438 71.0246 27.8536C71.0679 27.7634 71.131 27.6841 71.2092 27.6216L77.7092 21.0794C76.4171 20.0892 74.8371 19.5477 73.2092 19.5373V19.5388Z" fill="#FF6C37"/>
<path d="M78.9591 21.1653L71.8342 28.2481L77.5013 33.9152C78.0717 33.5878 78.6027 33.1961 79.0841 32.748C80.5694 31.1781 81.3866 29.0925 81.3633 26.9314C81.3399 24.7703 80.4779 22.7029 78.9591 21.1653Z" fill="white"/>
<path d="M77.3747 34.5403C77.2811 34.5454 77.1876 34.5293 77.101 34.4933C77.0145 34.4574 76.9371 34.4024 76.8747 34.3325L71.2076 28.6653C71.1294 28.6028 71.0663 28.5235 71.0229 28.4333C70.9795 28.3431 70.957 28.2443 70.957 28.1442C70.957 28.0441 70.9795 27.9453 71.0229 27.8551C71.0663 27.7649 71.1294 27.6856 71.2076 27.6231L78.2903 20.6654C78.3587 20.5622 78.4516 20.4776 78.5607 20.4191C78.6697 20.3606 78.7915 20.33 78.9153 20.33C79.0391 20.33 79.1609 20.3606 79.27 20.4191C79.379 20.4776 79.4719 20.5622 79.5403 20.6654C80.3718 21.4801 81.0324 22.4525 81.4833 23.5257C81.9343 24.5989 82.1666 25.7512 82.1666 26.9153C82.1666 28.0794 81.9343 29.2318 81.4833 30.305C81.0324 31.3782 80.3718 32.3506 79.5403 33.1653C79.0498 33.6855 78.4886 34.1342 77.8731 34.4981C77.7182 34.5762 77.539 34.5913 77.3731 34.5403H77.3747ZM72.7919 28.1247L77.4997 32.8325C77.8235 32.6055 78.1301 32.3548 78.4169 32.0825C79.8008 30.7023 80.5803 28.8292 80.584 26.8747C80.5872 25.1256 79.9497 23.4358 78.7919 22.1247L72.7919 28.1247Z" fill="#FF6C37"/>
<path d="M68.4997 33.6246C67.9353 33.0947 67.1903 32.7997 66.4161 32.7997C65.6419 32.7997 64.8969 33.0947 64.3325 33.6246L45.4592 52.4558L48.5842 55.6229L68.5419 38.123C68.8462 37.8313 69.0877 37.4804 69.2513 37.0919C69.4149 36.7034 69.4973 36.2855 69.4933 35.8639C69.4894 35.4424 69.3992 35.0261 69.2283 34.6407C69.0574 34.2553 68.8095 33.909 68.4997 33.6231V33.6246Z" fill="white"/>
<path d="M48.4171 56.3744C48.2303 56.3698 48.052 56.2957 47.9171 56.1666L44.7499 52.9995C44.6148 52.8596 44.5393 52.6728 44.5393 52.4784C44.5393 52.2839 44.6148 52.0971 44.7499 51.9573L63.6247 33.1653C64.1684 32.6223 64.8626 32.2551 65.6175 32.1114C66.3723 31.9678 67.1529 32.0542 67.858 32.3595C68.5631 32.6648 69.1602 33.175 69.5719 33.8237C69.9836 34.4725 70.1909 35.23 70.1669 35.998C70.1452 36.5193 70.0198 37.0311 69.7979 37.5033C69.576 37.9755 69.2622 38.3986 68.8747 38.748L48.917 56.2479C48.7719 56.3506 48.5935 56.3952 48.4171 56.3729V56.3744ZM46.2093 52.4557L48.2921 54.5807L67.8747 37.5387C68.3591 37.1168 68.6481 36.5137 68.6669 35.8715C68.6856 35.2293 68.4325 34.6012 67.9591 34.1637C67.5219 33.7283 66.93 33.4839 66.313 33.4839C65.696 33.4839 65.1041 33.7283 64.6669 34.1637L46.2093 52.4557Z" fill="#FF6C37"/>
<path d="M30.8345 73.9149C30.7812 73.9874 30.7525 74.075 30.7525 74.1649C30.7525 74.2549 30.7812 74.3425 30.8345 74.4149L31.6673 78.0399C31.7007 78.2532 31.6691 78.4716 31.5766 78.6667C31.484 78.8618 31.3349 79.0245 31.1486 79.1336C30.963 79.2422 30.7477 79.2891 30.5337 79.2675C30.3197 79.2458 30.1181 79.1569 29.958 79.0133L24.2502 73.5134L42.0422 55.5807H48.2093L52.3765 59.7478C45.8761 65.4313 38.6281 70.1979 30.8345 73.9149Z" fill="white"/>
<path d="M30.4595 80.0399C29.9876 80.0305 29.522 79.8367 29.2095 79.4977L23.7518 74.0399C23.6736 73.9774 23.6105 73.8981 23.5671 73.8079C23.5237 73.7177 23.5012 73.6189 23.5012 73.5188C23.5012 73.4187 23.5237 73.3199 23.5671 73.2297C23.6105 73.1395 23.6736 73.0602 23.7518 72.9977L41.6672 55.0401C41.7675 54.9335 41.8986 54.8608 42.0422 54.8323H48.25C48.4117 54.7751 48.5882 54.7751 48.75 54.8323L52.9171 58.9994C52.9964 59.0725 53.0567 59.1637 53.0929 59.2652C53.1291 59.3667 53.1401 59.4755 53.1249 59.5822C53.1279 59.6857 53.1068 59.7886 53.0635 59.8826C53.0201 59.9767 52.9556 60.0594 52.8749 60.1244L52.5421 60.4166C46.0155 65.8577 38.835 70.4625 31.1673 74.1243L31.9595 77.4992C32.0207 77.7596 32.0231 78.0303 31.9664 78.2917C31.9096 78.5531 31.7953 78.7985 31.6316 79.0101C31.468 79.2216 31.2592 79.394 31.0205 79.5145C30.7817 79.6351 30.5191 79.7009 30.2517 79.707L30.4595 80.0399ZM25.3767 73.4977L30.2923 78.4555C30.3381 78.4963 30.3974 78.5189 30.4587 78.5189C30.5201 78.5189 30.5793 78.4963 30.6251 78.4555C30.6558 78.4129 30.6723 78.3618 30.6723 78.3094C30.6723 78.257 30.6558 78.2059 30.6251 78.1633L29.7923 74.5383C29.7267 74.2782 29.7531 74.0033 29.867 73.7604C29.9809 73.5175 30.1753 73.3214 30.4173 73.2055C37.8789 69.5926 44.8742 65.0873 51.2499 59.7885L47.8328 56.3713H42.25L25.3767 73.4977Z" fill="#FF6C37"/>
<path d="M19.9595 77.7898L24.1266 73.6227L30.5438 80.0398L20.3361 79.332C20.1608 79.3182 19.9944 79.2495 19.8605 79.1355C19.7266 79.0216 19.6321 78.8683 19.5906 78.6975C19.549 78.5267 19.5624 78.3471 19.629 78.1844C19.6955 78.0217 19.8117 77.8841 19.9611 77.7914L19.9595 77.7898Z" fill="white"/>
<path d="M30.6673 80.6649L20.5002 79.957C19.8971 79.9008 19.3784 79.4883 19.1659 78.9367C18.9534 78.3852 19.083 77.7305 19.5002 77.2899L23.6674 73.1227C23.8072 72.9876 23.994 72.9121 24.1885 72.9121C24.3829 72.9121 24.5697 72.9876 24.7095 73.1227L31.0845 79.4977C31.1727 79.6186 31.2203 79.7644 31.2203 79.9141C31.2203 80.0638 31.1727 80.2096 31.0845 80.3305C30.9881 80.4863 30.8406 80.6039 30.6673 80.6633V80.6649ZM20.5002 78.3321L28.8329 78.8742L24.2502 74.5821L20.5002 78.3321Z" fill="#FF6C37"/>
<path d="M48.792 56.0838L40.375 57.376L45.2499 52.5432L48.792 56.0838Z" fill="white"/>
<path d="M40.375 58.1651C40.2351 58.1688 40.0973 58.1312 39.9786 58.057C39.86 57.9828 39.7658 57.8753 39.7079 57.7479C39.6191 57.6272 39.5713 57.4813 39.5713 57.3315C39.5713 57.1817 39.6191 57.0358 39.7079 56.9151L44.5406 52.0401C44.6872 51.9023 44.8808 51.8256 45.082 51.8256C45.2831 51.8256 45.4767 51.9023 45.6234 52.0401L49.167 55.5807C49.2378 55.693 49.2754 55.823 49.2754 55.9557C49.2754 56.0884 49.2378 56.2185 49.167 56.3307C49.1323 56.4676 49.0588 56.5915 48.9555 56.6876C48.8521 56.7838 48.7232 56.8481 48.5842 56.8729L40.2516 58.1651H40.375ZM45.2499 53.6229L42.5422 56.3307L47.2093 55.6229L45.2499 53.6229Z" fill="#FF6C37"/>
<path d="M48.7921 56.0807L42.9172 56.8307C42.76 56.8664 42.5955 56.8505 42.448 56.7853C42.3006 56.7201 42.178 56.6092 42.0986 56.4689C42.0191 56.3286 41.987 56.1664 42.007 56.0065C42.027 55.8465 42.0979 55.6972 42.2094 55.5807L45.2515 52.5385L48.7921 56.0807Z" fill="white"/>
<path d="M42.7499 57.6244C42.4776 57.6218 42.2108 57.5472 41.9767 57.408C41.7426 57.2689 41.5495 57.0702 41.4171 56.8323C41.258 56.547 41.1963 56.2177 41.2414 55.8942C41.2866 55.5708 41.436 55.2709 41.6671 55.0401L44.7093 51.9979C44.8559 51.8602 45.0495 51.7835 45.2507 51.7835C45.4519 51.7835 45.6455 51.8602 45.7921 51.9979L49.3342 55.5401C49.4396 55.6399 49.5137 55.7681 49.5476 55.9092C49.5815 56.0503 49.5738 56.1982 49.5253 56.335C49.4769 56.4718 49.3898 56.5915 49.2746 56.6798C49.1594 56.7681 49.0211 56.821 48.8764 56.8323L43.0437 57.5823L42.7499 57.6244ZM42.7499 56.0823L47.1671 55.5401L45.2093 53.5823L42.7093 56.0823H42.7499ZM78.9996 25.9575C78.9211 25.826 78.7971 25.7279 78.6511 25.6818C78.505 25.6357 78.3472 25.6449 78.2074 25.7075C78.1385 25.7424 78.0772 25.7908 78.0273 25.8499C77.9774 25.9089 77.9398 25.9774 77.9168 26.0512C77.8704 26.2002 77.885 26.3614 77.9574 26.4996C78.2496 27.1137 78.1684 27.8403 77.7496 28.3746C77.6976 28.4261 77.6569 28.4878 77.63 28.5559C77.6031 28.6239 77.5906 28.6968 77.5934 28.7699C77.5949 28.9165 77.6505 29.0573 77.7496 29.1653C77.8565 29.2075 77.9755 29.2075 78.0824 29.1653C78.1794 29.1896 78.2813 29.187 78.3769 29.1575C78.4725 29.128 78.5582 29.0729 78.6246 28.9981C78.9677 28.578 79.185 28.0694 79.2513 27.5311C79.3177 26.9928 79.2304 26.4467 78.9996 25.9559V25.9575Z" fill="#FF6C37"/>
</svg>
