<svg width="101" height="76" viewBox="0 0 101 76" fill="none" xmlns="http://www.w3.org/2000/svg">
<path fill-rule="evenodd" clip-rule="evenodd" d="M59.4169 0.112262C70.6588 0.108354 81.9011 0.0741559 93.143 0.121545C99.8262 0.148903 101.711 2.38203 100.27 8.98224C96.0508 28.3119 91.7369 47.6221 87.365 66.918C85.9824 73.017 82.8059 75.5154 76.3899 75.5345C53.9057 75.6014 31.4214 75.6087 8.93774 75.5315C1.58859 75.5056 -0.344576 73.0165 1.23879 66.0518C5.53504 47.1369 9.85424 28.2279 14.2081 9.32618C15.8667 2.1231 18.3593 0.145483 25.6899 0.124476C36.9322 0.0927205 48.1746 0.116171 59.4169 0.112262Z" fill="#E0EAF5"/>
<path fill-rule="evenodd" clip-rule="evenodd" d="M42.4278 73.2866C31.1845 73.2827 19.9407 73.3345 8.69788 73.2607C2.99658 73.2236 1.9599 71.8781 3.2433 66.3019C7.59426 47.3904 12.0854 28.5107 16.3397 9.57772C17.4804 4.4998 19.9412 2.25544 25.3816 2.30576C47.8663 2.51437 70.3549 2.37269 92.841 2.39565C98.4803 2.40102 99.4271 3.60724 98.1613 9.32661C94.0512 27.8946 89.9152 46.4573 85.7064 65.0034C84.1313 71.9441 82.3169 73.2685 75.0146 73.2847C64.1524 73.3076 53.2896 73.2905 42.4278 73.2866Z" fill="#2671BE"/>
<path fill-rule="evenodd" clip-rule="evenodd" d="M51.995 36.2248C51.2412 35.3405 50.4136 34.3224 49.5371 33.3492C44.5672 27.8287 39.6412 22.2671 34.5828 16.8292C32.2681 14.3405 31.5304 11.9237 34.3102 9.46732C37.0573 7.03927 39.7565 7.25423 42.2764 10.0477C49.2943 17.8248 56.3039 25.6107 63.4381 33.2809C66.1016 36.1457 65.4812 38.0935 62.5475 40.2162C51.2871 48.3666 40.0902 56.6053 28.9055 64.8598C26.3914 66.7157 23.9946 67.1803 21.9638 64.4391C19.7233 61.4155 21.7962 59.6167 24.1202 57.9244C32.4318 51.8704 40.7272 45.7939 48.987 39.6695C50.1375 38.8165 51.7893 38.3192 51.995 36.2248Z" fill="#FDFDFE"/>
<path fill-rule="evenodd" clip-rule="evenodd" d="M55.555 65.473C52.528 65.473 49.4966 65.5771 46.4764 65.4398C44.0669 65.3308 42.6169 63.9844 42.6472 61.4464C42.6765 59.0467 43.8861 57.2425 46.2932 57.1776C52.909 57.0002 59.5346 57.0383 66.1529 57.1678C68.2561 57.2088 69.8087 58.5792 69.796 60.7708C69.7809 63.2848 68.4579 65.2326 65.7655 65.3948C62.3731 65.6 58.9596 65.4457 55.5555 65.4457C55.555 65.454 55.555 65.4637 55.555 65.473Z" fill="#FCFDFD"/>
</svg>
