<svg width="101" height="101" viewBox="0 0 101 101" fill="none" xmlns="http://www.w3.org/2000/svg">
<path d="M96.441 100.771H4.18497C2.05874 100.771 0.312988 99.0252 0.312988 96.899V4.66531C0.312988 2.53908 2.05874 0.793335 4.18497 0.793335H96.441C98.5672 0.793335 100.313 2.53908 100.313 4.66531V96.9214C100.291 99.0476 98.5672 100.771 96.441 100.771Z" fill="#4D4D4E"/>
<path d="M23.3657 30.9858L75.6934 14.3788C75.6934 14.3788 79.4087 12.4316 78.5134 16.035L78.6477 32.0377C78.6477 32.0377 79.2968 34.3878 76.0739 34.9697L54.8116 41.617L23.3657 30.9858Z" fill="#F89820"/>
<path d="M23.3657 30.9858C23.3657 30.9858 21.3066 31.4782 21.9109 34.9921L21.799 50.4129C21.799 50.4129 21.62 52.3601 25.3129 53.1434L77.1705 69.8399C77.1705 69.8399 78.9163 70.5337 78.7149 68.3851L78.7372 51.1962C78.7372 51.1962 79.2296 49.4281 76.0067 48.2643L54.8115 41.617L23.3657 30.9858Z" fill="#F89820"/>
<path d="M46.2171 59.8578L24.1491 66.5946C24.1491 66.5946 21.4857 66.6841 21.7991 71.6752C22.1124 76.6662 21.7767 86.7154 21.7767 86.7154C21.7767 86.7154 22.0005 88.5731 24.552 87.4988L76.8796 70.8023C76.8796 70.8023 78.7373 70.3323 77.1706 69.8175C75.6039 69.3251 46.2171 59.8578 46.2171 59.8578Z" fill="url(#paint0_linear_527_2657)"/>
<defs>
<linearGradient id="paint0_linear_527_2657" x1="24.838" y1="77.57" x2="77.7706" y2="59.2557" gradientUnits="userSpaceOnUse">
<stop offset="0.233" stop-color="#F89822"/>
<stop offset="1" stop-color="#C27818"/>
</linearGradient>
</defs>
</svg>
