<svg width="101" height="100" viewBox="0 0 101 100" fill="none" xmlns="http://www.w3.org/2000/svg">
<path d="M1.60815 35.3304C1.60815 35.3304 -0.827471 33.5747 2.09528 31.2304L8.90488 25.1413C8.90488 25.1413 10.8534 23.0913 12.9135 24.8775L75.7526 72.4534V95.2671C75.7526 95.2671 75.7222 98.8495 71.125 98.4537L1.60815 35.3304Z" fill="#2489CA"/>
<path d="M17.805 50.0358L1.60812 64.7611C1.60812 64.7611 -0.0562284 65.9992 1.60812 68.2116L9.12812 75.0516C9.12812 75.0516 10.9142 76.9697 13.5528 74.7878L30.724 61.7674L17.805 50.0358Z" fill="#1070B3"/>
<path d="M46.2411 50.1574L75.9456 27.4756L75.7528 4.78362C75.7528 4.78362 74.4843 -0.168833 70.2524 2.40888L30.7241 38.3852L46.2411 50.1574Z" fill="#0877B9"/>
<path d="M71.1251 98.4843C72.8503 100.25 74.9409 99.6716 74.9409 99.6716L98.0895 88.2648C101.053 86.2452 100.637 83.7386 100.637 83.7386V15.6221C100.637 12.6283 97.5719 11.5932 97.5719 11.5932L77.5085 1.92169C73.1243 -0.787945 70.2523 2.40882 70.2523 2.40882C70.2523 2.40882 73.9464 -0.250077 75.7528 4.78356V94.8511C75.7528 95.4702 75.6208 96.0791 75.357 96.6271C74.8293 97.6927 73.6825 98.6872 70.9323 98.2711L71.1251 98.4843Z" fill="#3C99D4"/>
</svg>
