<svg width="101" height="101" viewBox="0 0 101 101" fill="none" xmlns="http://www.w3.org/2000/svg">
<path d="M7.31654 50.4838C7.31654 67.4627 17.1833 82.1342 31.4908 89.088L11.0301 33.0275C8.57736 38.52 7.3119 44.4685 7.31654 50.4838ZM79.1659 48.3193C79.1659 43.0183 77.2617 39.3471 75.6286 36.4897C73.4543 32.9565 71.4171 29.9644 71.4171 26.4312C71.4171 22.4883 74.4068 18.8179 78.619 18.8179C78.8092 18.8179 78.9896 18.8416 79.1757 18.8522C71.5436 11.8609 61.3766 7.59229 50.2097 7.59229C35.2248 7.59229 22.0411 15.2806 14.3715 26.9258C15.3779 26.956 16.3271 26.9764 17.1318 26.9764C21.6183 26.9764 28.5632 26.432 28.5632 26.432C30.8754 26.2957 31.148 29.6918 28.839 29.9652C28.839 29.9652 26.5146 30.2386 23.9289 30.3741L39.5488 76.8348L48.9365 48.6825L42.2528 30.3733C39.9431 30.2378 37.7549 29.9644 37.7549 29.9644C35.4435 29.8289 35.7145 26.2949 38.0259 26.4312C38.0259 26.4312 45.1094 26.9756 49.3241 26.9756C53.8098 26.9756 60.7555 26.4312 60.7555 26.4312C63.0693 26.2949 63.3411 29.691 61.0305 29.9644C61.0305 29.9644 58.702 30.2378 56.1212 30.3733L71.622 76.4822L75.8996 62.1853C77.7547 56.2525 79.1659 51.9913 79.1659 48.3193Z" fill="white"/>
<path d="M50.9622 54.2358L38.0928 91.6312C42.0273 92.7907 46.1079 93.3795 50.2097 93.3795C55.2047 93.3795 59.9948 92.5151 64.4536 90.9481C64.334 90.7609 64.2318 90.5631 64.1483 90.3572L50.9622 54.2358ZM87.8468 29.9049C88.0312 31.2712 88.1357 32.7387 88.1357 34.3155C88.1357 38.6682 87.3228 43.5611 84.8742 49.6791L71.7722 87.5601C84.5241 80.124 93.1013 66.3086 93.1013 50.4839C93.1127 43.2909 91.3052 36.2119 87.8468 29.9049Z" fill="white"/>
<path d="M50.2097 0.485107C22.6402 0.485107 0.209229 22.9144 0.209229 50.4839C0.209229 78.0566 22.6393 100.486 50.2097 100.486C77.7784 100.486 100.213 78.0574 100.213 50.4839C100.212 22.9144 77.7784 0.485107 50.2097 0.485107ZM50.2097 98.1932C23.9044 98.1932 2.50186 76.7907 2.50186 50.4839C2.50186 24.1794 23.9036 2.77855 50.2097 2.77855C76.5142 2.77855 97.9151 24.1794 97.9151 50.4839C97.9151 76.7907 76.5134 98.1932 50.2097 98.1932Z" fill="white"/>
</svg>
